<svg id="Layer_1" data-name="Layer 1" xmlns="http://www.w3.org/2000/svg" viewBox="0 0 455.29 459"><defs><style>.cls-1{fill:#9e5836;}.cls-2{fill:#eac55e;}.cls-3{fill:#ce8f11;}.cls-4{fill:#b45328;}.cls-5{fill:#239643;}.cls-6{fill:#fdcd9d;}.cls-7{fill:#eaeaea;}.cls-8{fill:#9a6352;}.cls-9{fill:#3c1605;}.cls-10{fill:#904530;}.cls-11{fill:#ad6650;}.cls-12{fill:#934938;}.cls-13{fill:#a5a5a5;}.cls-14{fill:#1a1a1a;}.cls-15{fill:#333;}.cls-16{fill:#b2b2b2;}.cls-17{fill:#8c4231;}.cls-18{fill:#212121;}.cls-19{fill:#bab6b8;}</style></defs><title>back2vedic_logo</title><path class="cls-1" d="M227,380.14c-81.53,0-147.85-66.32-147.85-147.85S145.46,84.45,227,84.45s147.84,66.32,147.84,147.84S308.51,380.14,227,380.14Zm0-293.69c-80.42,0-145.85,65.43-145.85,145.84S146.57,378.14,227,378.14s145.84-65.43,145.84-145.85S307.41,86.45,227,86.45Z"/><path class="cls-1" d="M451,271.85a4,4,0,0,0,.91-5.48c-2.76-3.88-5.53-7.61-8.36-11.21-.9-1.09-1.8-2.15-2.7-3.22.24-2.6.45-5.22.59-7.86s.23-5.29.28-7.93c1-1,2-1.93,3.05-2.93q4.79-4.92,9.53-10.29a4,4,0,0,0-.33-5.54c-4.48-4.19-9.12-8.1-13.84-11.76q-1-7.87-2.53-15.56c.79-1.18,1.55-2.36,2.28-3.55q1.83-2.93,3.65-6l1.8-3.07L447,174.4a4.09,4.09,0,0,0-1.49-5.35c-4-2.42-8.25-4.59-12.33-6.67-1.23-.64-2.49-1.25-3.75-1.84q-2.65-7.46-5.84-14.64c2.16-5.6,4.12-11.37,5.8-17.3a4,4,0,0,0-2.6-4.91q-3.39-1.06-6.75-2c-2.25-.64-4.4-1.29-6.7-1.82-1.37-.33-2.73-.64-4.08-1q-4.18-6.69-8.85-13.06,1.35-8.89,2-18.16a4.09,4.09,0,0,0-3.61-4.21c-4.63-.52-9.4-.72-14-.88-1.42,0-2.81-.09-4.2-.11q-5.5-5.62-11.42-10.84c-.38-6-1-12.05-2-18.14a4,4,0,0,0-1.52-2.59,3.92,3.92,0,0,0-2.89-.78c-2.36.3-4.69.63-7,1s-4.54.67-6.85,1.16c-1.38.27-2.74.55-4.09.84q-6.6-4.32-13.52-8.16-2.49-8.64-5.83-17.31a4.08,4.08,0,0,0-5-2.31c-4.42,1.47-8.82,3.28-13.06,5.07L303.57,32q-7.35-2.79-15-5c-.66-1.22-1.32-2.43-2-3.66-1.15-2-2.31-4.11-3.56-6s-2.52-3.93-3.83-5.91a4,4,0,0,0-5.41-1.23c-4,2.55-7.92,5.15-11.66,7.76-1.14.83-2.24,1.68-3.35,2.52-5.18-.75-10.43-1.33-15.73-1.71-.92-1.06-1.82-2.12-2.76-3.18-3.11-3.42-6.37-6.71-9.77-10.07a4,4,0,0,0-5.55,0q-2.53,2.49-5,5L217.59,13c-.79.83-1.57,1.73-2.35,2.59-.93,1-1.84,2.09-2.74,3.13q-7.92.55-15.68,1.68l-.63-.49c-.92-.68-1.85-1.33-2.79-2-1.89-1.32-3.8-2.64-5.76-4s-4-2.66-6-3.83a4.1,4.1,0,0,0-5.42,1.23c-1.3,2-2.59,3.86-3.8,5.9s-2.39,4-3.53,6c-.7,1.23-1.38,2.44-2.05,3.66q-7.57,2.24-14.93,5l-3.85-1.68c-2.13-.9-4.32-1.86-6.49-2.66S137.23,26,135,25.23a4,4,0,0,0-5.06,2.29q-2.49,6.7-4.58,13.23c-.41,1.36-.77,2.7-1.15,4q-6.92,3.81-13.51,8.13c-1.39-.3-2.77-.58-4.16-.84C102,51.3,97.35,50.55,92.63,50a4.08,4.08,0,0,0-4.38,3.41c-.36,2.33-.7,4.62-1,6.94s-.47,4.67-.67,7c-.11,1.4-.2,2.77-.3,4.16q-5.93,5.2-11.46,10.84l-4.2.08c-2.31.08-4.71.13-7,.31s-4.65.37-7,.6A4,4,0,0,0,53,87.49c.36,4.75.81,9.38,1.37,13.93.2,1.4.43,2.77.65,4.15q-4.67,6.34-8.88,13c-1.37.31-2.75.63-4.12,1-4.43,1.17-9,2.44-13.51,3.9A4.09,4.09,0,0,0,26,128.42c.66,2.27,1.31,4.49,2,6.7s1.53,4.44,2.32,6.61c.48,1.32,1,2.61,1.47,3.9q-3.18,7.2-5.85,14.67c-1.26.61-2.51,1.2-3.77,1.84-2.07,1-4.17,2.1-6.24,3.22s-4.05,2.3-6.09,3.5a4.09,4.09,0,0,0-1.54,5.34c2.33,4.16,4.73,8.19,7.15,12.07.71,1.18,1.51,2.36,2.31,3.53q-1.54,7.68-2.55,15.57c-1.1.86-2.2,1.7-3.31,2.58-1.87,1.45-3.54,3-5.32,4.5s-3.5,3.11-5.26,4.72A3.9,3.9,0,0,0,1,222.71q2.36,2.67,4.71,5.23c1.6,1.71,3.1,3.38,4.8,5,1,1,2,1.94,3,2.9q.12,7.95.82,15.76c-.92,1.08-1.84,2.18-2.68,3.28-2.82,3.61-5.66,7.38-8.41,11.28a4.09,4.09,0,0,0,1,5.47c1.9,1.41,3.78,2.78,5.67,4.12s3.91,2.61,5.85,3.85c1.18.76,2.35,1.48,3.53,2.21q1.83,7.73,4.21,15.23c-.63,1.24-1.27,2.47-1.89,3.74q-1.53,3.12-3,6.35c-.94,2.13-1.83,4.28-2.73,6.47a4.09,4.09,0,0,0,2,5.18c4.34,1.91,8.71,3.66,13,5.28,1.31.49,2.64,1,4,1.41q3.45,7.11,7.39,13.93c-.36,1.36-.74,2.71-1.09,4.09-1,4.47-2,9-2.85,13.75a4,4,0,0,0,3.16,4.56c2.32.48,4.61.93,6.89,1.34s4.63.73,6.91,1l4.15.53q4.87,6.19,10.2,12c0,1.4-.11,2.78-.14,4.2,0,2.31-.08,4.66-.08,7s.13,4.66.23,7a4.09,4.09,0,0,0,4,3.85c4.75-.08,9.44-.33,14-.63,1.4-.11,2.8-.25,4.19-.39q6.09,5,12.55,9.56c.23,1.39.46,2.77.71,4.17q1.39,6.72,3.17,13.69a4.06,4.06,0,0,0,4.79,2.82q3.45-.81,6.81-1.67c2.24-.57,4.51-1.28,6.72-2,1.34-.41,2.66-.83,4-1.25q7,3.56,14.29,6.63c.54,1.28,1.09,2.57,1.66,3.87q1.38,3.18,2.88,6.4c1,2.15,2.07,4.18,3.16,6.29a4.11,4.11,0,0,0,5.26,1.8c2.11-.95,4.24-2.11,6.31-3.18s4.12-2.19,6.12-3.3c1-.56,2-1.1,3-1.68l.66-.41q7.59,2,15.4,3.38c.79,1.14,1.59,2.28,2.41,3.43,1.35,1.93,2.76,3.75,4.2,5.57s2.92,3.66,4.44,5.5a4,4,0,0,0,2.64,1.43,3.84,3.84,0,0,0,2.87-.83c3.73-3,7.31-5.89,10.75-8.95,1-1,2-1.9,3.06-2.86,5.31.21,10.59.21,15.82,0,1,1,2,1.93,3.09,2.88q5.17,4.5,10.8,9a4.06,4.06,0,0,0,5.52-.66c1.51-1.82,3-3.63,4.41-5.45s2.82-3.75,4.18-5.6c.81-1.14,1.59-2.27,2.38-3.41q7.8-1.4,15.42-3.37c1.2.7,2.42,1.39,3.66,2.08,4,2.24,8.23,4.51,12.49,6.45a4.1,4.1,0,0,0,5.27-1.76q4.22-8.25,7.6-16.53,7.3-3,14.32-6.63c1.33.43,2.66.86,4,1.28,2.25.73,4.45,1.28,6.71,1.88s4.55,1.16,6.87,1.71a4,4,0,0,0,4.75-2.88c1.58-5.93,2.85-11.87,3.87-17.76q6.44-4.53,12.53-9.52l4.21.34c4.59.32,9.37.63,14,.6a4.08,4.08,0,0,0,4-3.8q.36-9.26,0-18.19,5.34-5.82,10.23-12l4.19-.51c4.6-.63,9.13-1.5,13.83-2.42a4,4,0,0,0,3.1-4.61c-1-6.05-2.36-12-3.91-17.75q3.94-6.78,7.39-13.89c1.32-.47,2.62-1,4-1.46,4.3-1.64,8.79-3.35,13-5.35a4.08,4.08,0,0,0,2.05-5.16l-1.33-3.23-1.46-3.23q-1.47-3.21-3-6.3c-.59-1.26-1.22-2.5-1.87-3.74q2.37-7.49,4.21-15.2C441.05,279,446.11,275.55,451,271.85ZM216.19,428.6c-108.41-6-191.47-98.68-185.51-207.1S129.37,30,237.78,36s191.47,98.68,185.51,207.1S324.61,434.56,216.19,428.6Z"/><circle class="cls-2" cx="226.99" cy="232.29" r="195"/><path class="cls-3" d="M227,431.3c-109.73,0-199-89.28-199-199s89.28-199,199-199,199,89.27,199,199S336.72,431.3,227,431.3Zm0-390c-105.32,0-191,85.69-191,191s85.69,191,191,191,191-85.69,191-191S332.3,41.29,227,41.29Z"/><path class="cls-4" d="M64.81,244.21a33.1,33.1,0,0,1,1.07,5.55c.32,2.64.26,4.29-.4,5.79A4.2,4.2,0,0,1,62,258.3a4.36,4.36,0,0,1-4.47-2.67h-.06A4.82,4.82,0,0,1,53.22,260a5.13,5.13,0,0,1-4.31-1.5c-1.27-1.26-2.18-3.51-2.63-7.32a32.61,32.61,0,0,1-.28-4.73ZM49.5,250.4a12.58,12.58,0,0,0,.14,1.68c.24,2,1.18,3.61,3.2,3.37s2.49-2.06,2.24-4.22l-.18-1.48Zm8.5-1,.17,1.42c.27,2.27,1.35,3.38,2.78,3.21s2.08-1.37,1.84-3.33a12.2,12.2,0,0,0-.33-1.84Z"/><path class="cls-4" d="M67,260.67a38.71,38.71,0,0,1,1.67,5.58c.63,2.79.65,4.84-.11,6.42A4.9,4.9,0,0,1,65,275.29,5.11,5.11,0,0,1,59.59,273l-.09,0c-.23,1.43-1.33,2.44-3,3.3-2,1.07-4.32,2.21-5,2.73l-1-4.35a23.92,23.92,0,0,1,4.09-2.3c2.23-1,2.69-2,2.33-3.73l-.29-1.28-7.4,1.67-1-4.22Zm-7.15,6,.38,1.67c.48,2.13,1.82,3.14,3.47,2.77s2.33-1.75,1.92-3.72a11.06,11.06,0,0,0-.57-1.89Z"/><path class="cls-4" d="M72.38,280.76,53.93,286.4l-1.28-4.19,18.45-5.63Z"/><path class="cls-4" d="M55.28,291l17.92-7.14,1.89,4.73L70,294.9a53.77,53.77,0,0,1-5,5.37l0,.08A70.77,70.77,0,0,1,72.39,297L77.63,295l1.48,3.72L61.19,305.8l-1.7-4.25L64.88,295A70.29,70.29,0,0,1,70,289.34l-.06-.07c-2.32,1.05-4.82,2.11-7.75,3.27l-5.4,2.15Z"/><path class="cls-4" d="M71.85,324.29a21.59,21.59,0,0,1-4-5.15c-1.67-3.09-2.1-5.76-1.43-8.14a9.35,9.35,0,0,1,4.88-5.72c5.65-3,11.09-.66,14.1,4.91a13.24,13.24,0,0,1,1.71,5.15l-3.5.86a10.8,10.8,0,0,0-1.41-4.35c-1.73-3.2-4.85-4.64-8.52-2.65-3.51,1.89-4.39,5.2-2.69,8.35a5.79,5.79,0,0,0,1.28,1.75l3.55-1.92-1.42-2.62,3-1.62,3.41,6.32Z"/><path class="cls-4" d="M92.09,321.52,75.92,332l-2.39-3.67L89.7,317.85Z"/><path class="cls-4" d="M78.48,336.06l15.26-11.81,3.11,4-3.13,7.5a57.89,57.89,0,0,1-3.3,6.53l0,.07a70.38,70.38,0,0,1,6.13-5.22l4.46-3.45,2.45,3.17L88.26,348.69l-2.81-3.62,3.36-7.82a73.9,73.9,0,0,1,3.34-6.82l-.07-.05c-2,1.65-4.06,3.36-6.55,5.29l-4.6,3.56Z"/><path class="cls-4" d="M103.56,363.51a21.49,21.49,0,0,1-5.28-3.84c-2.46-2.52-3.6-5-3.62-7.43a9.35,9.35,0,0,1,3.12-6.85c4.61-4.46,10.49-3.68,14.91.85a13.17,13.17,0,0,1,3.06,4.49l-3.14,1.78a10.55,10.55,0,0,0-2.54-3.79c-2.54-2.6-5.94-3.13-8.92-.21s-2.79,6.2-.29,8.76a5.93,5.93,0,0,0,1.7,1.34l2.89-2.82-2.08-2.13,2.44-2.38,5,5.14Z"/><path class="cls-4" d="M122.77,356.22a35.9,35.9,0,0,1,4.72,3.12c2.11,1.62,3.24,2.82,3.85,4.33a4.21,4.21,0,0,1-.46,4.41,4.35,4.35,0,0,1-5,1.34l0,0a4.83,4.83,0,0,1,.15,6.11,5.16,5.16,0,0,1-4.08,2c-1.8,0-4-.9-7.08-3.24a31.36,31.36,0,0,1-3.57-3.1Zm-6.29,15.28a13.64,13.64,0,0,0,1.31,1.07c1.57,1.21,3.4,1.68,4.64.07s.27-3.22-1.45-4.55l-1.18-.9Zm5.22-6.79,1.13.87c1.82,1.4,3.37,1.4,4.24.27s.48-2.45-1.09-3.66a12.39,12.39,0,0,0-1.54-1Z"/><path class="cls-4" d="M132.37,380.51l-3.76,3.5-3.86-2.36,15.1-13.38,4.89,3-5,19.58-4-2.45,1.31-5Zm5.88-.23,1.11-4.12c.3-1.16.76-2.56,1.11-3.68l-.05,0c-.84.82-1.85,1.92-2.7,2.71l-3.11,2.89Z"/><path class="cls-4" d="M155.57,397.87a12.53,12.53,0,0,1-4.82-1.39c-6-2.89-7.32-8.11-4.95-13.07,2.85-5.93,8.66-7.21,13.93-4.69a11.41,11.41,0,0,1,3.91,2.83l-2.29,2.74a9.52,9.52,0,0,0-3-2.23c-3.12-1.49-6.45-.77-8.31,3.1-1.67,3.48-.65,6.67,2.86,8.35a10.86,10.86,0,0,0,3.55,1Z"/><path class="cls-4" d="M165.65,381.75l4.07,1.46-2.87,8,.08,0c.66-.56,1.32-1,1.95-1.55l6.29-4.56,5,1.8-8.78,5.58,2.6,12.7-4.8-1.71-1.64-9.44-2.25,1.35-2.12,5.93-4.07-1.45Z"/><path class="cls-4" d="M188.77,392.82l-5.06-1.12.79-3.57,14.47,3.2-.79,3.58L193,393.77,189.67,409l-4.28-.95Z"/><path class="cls-4" d="M204.89,392.12l-.85,7.36,7.14.82.84-7.37,4.33.49-2.2,19.17-4.32-.49.92-8-7.14-.82-.92,8-4.35-.5,2.2-19.16Z"/><path class="cls-4" d="M230.68,404.78l-7.1-.09-.06,4.58,7.93.1,0,3.58-12.31-.16.24-19.29,11.91.15,0,3.58-7.53-.1-.05,4,7.1.09Z"/><path class="cls-4" d="M243.78,392.78l.92,7.36,7.13-.89-.92-7.36,4.32-.54,2.39,19.15-4.32.54-1-8-7.13.89,1,8-4.34.54-2.4-19.14Z"/><path class="cls-4" d="M272,398.94,265,400.55l1,4.46,7.73-1.8.81,3.49-12,2.79-4.38-18.8,11.6-2.7.81,3.49-7.33,1.71.91,3.9,6.91-1.61Z"/><path class="cls-4" d="M281.32,399.44l.3,5.13L277.34,406l-.67-20.15,5.42-1.86L294,400.33l-4.44,1.52-3-4.2Zm3.57-4.67-2.46-3.49c-.7-1-1.49-2.21-2.13-3.2l-.05,0c.1,1.17.3,2.65.36,3.81l.25,4.24Z"/><path class="cls-4" d="M289.44,381.22l4-1.82,6.5,14.21,7-3.19,1.52,3.33-11,5Z"/><path class="cls-4" d="M304.58,378,300,380.52l-1.76-3.22,13-7.12,1.76,3.21-4.62,2.53,7.51,13.71-3.85,2.11Z"/><path class="cls-4" d="M316.27,366.87l4.22,6.1,5.91-4.09-4.22-6.09,3.58-2.48,11,15.87-3.58,2.47L328.56,372l-5.91,4.09,4.59,6.64-3.6,2.49-11-15.86Z"/><path class="cls-4" d="M343.68,370.43l-5.15-6-12-4.66,3.77-3.25,4.52,2.23c1.37.67,2.35,1.19,3.54,1.83l0,0c-.46-1.19-.84-2.34-1.3-3.75L335.51,352l3.71-3.2,2.52,12.67,5.24,6.1Z"/><path class="cls-4" d="M367.49,345.72a12.38,12.38,0,0,1-2.66,4.25c-4.43,5-9.81,4.81-13.92,1.16-4.93-4.37-4.55-10.31-.68-14.68a11.26,11.26,0,0,1,3.8-3l2,3a9.46,9.46,0,0,0-3,2.27c-2.3,2.59-2.52,6,.69,8.84,2.89,2.56,6.23,2.46,8.82-.45a11.08,11.08,0,0,0,1.94-3.14Z"/><path class="cls-4" d="M357.34,328.07l9.05,6.44c2.7,1.92,4.81,1.88,6.1.06s.75-3.82-2-5.8l-9.05-6.43,2.52-3.55,8.82,6.27c4.85,3.45,5.42,7.54,2.5,11.65s-6.68,4.74-11.69,1.17l-8.77-6.24Z"/><path class="cls-4" d="M365.46,316.16l2.17-3.81,13.59,7.73,3.79-6.67,3.18,1.81-5.95,10.48Z"/><path class="cls-4" d="M375.89,304.69l-2.23,4.68-3.31-1.58,6.38-13.38L380,296l-2.26,4.76,14.11,6.72-1.88,4Z"/><path class="cls-4" d="M378.8,288.85l10.48,3.71c3.13,1.11,5.14.48,5.88-1.63s-.32-3.88-3.54-5l-10.47-3.71,1.45-4.1,10.2,3.61c5.62,2,7.29,5.76,5.61,10.52-1.62,4.58-5.12,6.39-10.92,4.33L377.34,293Z"/><path class="cls-4" d="M383.64,275.26a37.54,37.54,0,0,1,.95-5.74c.65-2.79,1.53-4.64,2.91-5.72a4.89,4.89,0,0,1,4.33-.81,5.13,5.13,0,0,1,3.84,4.41l.08,0c.84-1.18,2.27-1.61,4.11-1.68,2.25-.08,4.84-.09,5.65-.28l-1,4.34a24,24,0,0,1-4.68.28c-2.46-.05-3.29.61-3.72,2.33l-.31,1.28,7.39,1.74-1,4.21Zm9.07-2.3.4-1.67c.5-2.11-.27-3.62-1.91-4s-2.87.55-3.35,2.5a10.74,10.74,0,0,0-.32,1.95Z"/><path class="cls-4" d="M399.54,249.41l-1,7,4.54.62,1.08-7.85,3.55.49-1.68,12.19-19.12-2.63,1.63-11.8,3.54.49-1,7.46,4,.54,1-7Z"/><ellipse class="cls-5" cx="226.99" cy="232.05" rx="146.44" ry="146.69"/><path class="cls-3" d="M227,382.24C144.31,382.24,77,314.86,77,232.05s67.27-150.2,150-150.2,149.94,67.38,149.94,150.2S309.67,382.24,227,382.24Zm0-293.39C148.17,88.85,84,153.09,84,232.05s64.13,143.19,143,143.19S369.93,311,369.93,232.05,305.81,88.85,227,88.85Z"/><path class="cls-4" d="M66.28,147.62A39,39,0,0,1,69.06,142c1.49-2.56,2.65-4,4.23-4.87a4.67,4.67,0,0,1,4.94-.12,4.88,4.88,0,0,1,2.19,5.37l0,0a5.39,5.39,0,0,1,6.72-1A5.72,5.72,0,0,1,90,145.57c.29,2-.42,4.59-2.57,8.28a36.52,36.52,0,0,1-2.92,4.39Zm9.53,0,.8-1.38c1.29-2.2,1.07-3.92-.31-4.72s-2.78-.17-3.88,1.73a12.8,12.8,0,0,0-.93,1.85Zm8.24,4.79a14.53,14.53,0,0,0,1-1.59c1.11-1.9,1.37-4-.59-5.14s-3.59.16-4.81,2.26l-.83,1.43Z"/><path class="cls-4" d="M92.67,135.05l3.48,4.54-3,4-13.2-18.17,3.83-5.09L104.91,128l-3.14,4.17-5.4-2Zm.38-6.54-4.45-1.67c-1.25-.46-2.75-1.12-4-1.63l0,.05c.83,1,1.93,2.25,2.72,3.28l2.87,3.76Z"/><path class="cls-4" d="M116.39,115.09a13.85,13.85,0,0,1-3.13,4.64c-5.12,5.38-11.1,5-15.54.74-5.31-5-4.66-11.65-.17-16.36a12.6,12.6,0,0,1,4.34-3.18l2.11,3.38a10.62,10.62,0,0,0-3.39,2.4c-2.66,2.8-3,6.57.42,9.87,3.12,3,6.84,3,9.83-.15a12.17,12.17,0,0,0,2.28-3.42Z"/><path class="cls-4" d="M105,97.26l3.7-3.07,6.07,7.3.07-.06c-.16-.94-.26-1.85-.38-2.75l-.81-8.61,4.59-3.81.37,11.58,13.65,4.71-4.37,3.62-10-3.77,0,2.92,4.48,5.39-3.7,3.08Z"/><path class="cls-4" d="M132.1,82l-4.92,3-2.13-3.48,14.09-8.6,2.12,3.48-5,3.06,9.07,14.84-4.16,2.54Z"/><path class="cls-4" d="M164.48,72.5c3,6.4.86,12.07-4.84,14.7s-11.18-.14-13.75-5.7c-2.7-5.84-1-11.93,4.78-14.59C156.66,64.15,162,67.12,164.48,72.5Zm-14,6.77c1.76,3.82,4.8,5.68,7.75,4.32s3.38-5,1.63-8.79c-1.62-3.5-4.68-5.74-7.72-4.33S148.76,75.48,150.51,79.27Z"/><path class="cls-4" d="M181.16,78.66,168.78,59.81l5.13-1.43,5,8.06c1.38,2.26,2.69,4.44,3.89,6.88l.09,0c-.16-2.63-.2-5.27-.15-7.83l.18-9.57,5-1.39-1.22,22.63Z"/><path class="cls-4" d="M206.51,64.05,198.7,65.3l.81,5,8.72-1.39.62,3.93L195.32,75l-3.39-21.2L205,51.73l.63,3.94L197.37,57l.71,4.4,7.8-1.24Z"/><path class="cls-4" d="M210.66,51.32a43.29,43.29,0,0,1,6.54-.71c4.08-.17,6.75.45,8.88,1.93,2.3,1.56,3.81,4.15,4,7.94.17,4.1-1.21,7-3.21,8.84-2.19,2-5.59,3-9.79,3.18a42.15,42.15,0,0,1-5.52-.1Zm5.59,17.32a9.28,9.28,0,0,0,1.69,0c4.4-.15,7.17-2.69,6.95-7.81-.15-4.46-2.86-6.71-7-6.54a10.72,10.72,0,0,0-2.19.28Z"/><path class="cls-4" d="M239.21,50.9l-1.14,21.45-4.87-.26,1.14-21.45Z"/><path class="cls-4" d="M257.52,74.06a13.81,13.81,0,0,1-5.59.16c-7.35-1-10.51-6.12-9.66-12.18,1-7.27,6.74-10.59,13.18-9.7A12.68,12.68,0,0,1,260.56,54l-1.51,3.68a10.61,10.61,0,0,0-3.93-1.35c-3.82-.53-7.11,1.37-7.76,6.1-.59,4.26,1.56,7.3,5.85,7.89a12.15,12.15,0,0,0,4.11-.13Z"/><path class="cls-4" d="M288,71.93c-2.11,6.72-7.46,9.52-13.45,7.64s-8.2-7.62-6.37-13.46c1.93-6.14,7.29-9.5,13.34-7.6C287.86,60.48,289.81,66.27,288,71.93Zm-14.9-4.37c-1.26,4-.26,7.43,2.84,8.4s5.86-1.43,7.11-5.41c1.16-3.68.39-7.4-2.81-8.4S274.39,63.57,273.14,67.56Z"/><path class="cls-4" d="M295.9,64.22a42,42,0,0,1,6.06,2.3c2.9,1.33,4.73,2.69,5.61,4.43a5.48,5.48,0,0,1-.08,4.91,5.7,5.7,0,0,1-5.66,3.22l0,.09c1.11,1.17,1.27,2.82.93,4.84-.4,2.48-1,5.31-.93,6.24l-4.52-2.08A27,27,0,0,1,298,83c.6-2.67.06-3.72-1.72-4.58L295,77.81l-3.53,7.67-4.37-2Zm.51,10.41,1.74.79c2.2,1,4,.51,4.79-1.2S303,71,301,70a12.5,12.5,0,0,0-2.06-.77Z"/><path class="cls-4" d="M319.25,99.72A24,24,0,0,1,312.51,97c-3.33-2-5.23-4.38-5.91-7a10.4,10.4,0,0,1,1.52-8.23c3.78-6.06,10.34-6.81,16.33-3.11a14.58,14.58,0,0,1,4.52,4l-2.9,2.77A12,12,0,0,0,322.29,82c-3.44-2.12-7.25-1.77-9.69,2.19-2.33,3.77-1.34,7.45,2,9.54a6.69,6.69,0,0,0,2.2,1l2.36-3.83-2.82-1.73,2-3.23,6.81,4.19Z"/><path class="cls-4" d="M328.64,101.28,324,104.61l-3.92-3.16,18.6-12.59,5,4-8.31,20.9-4.07-3.28,2.18-5.33Zm6.52.6L337,97.49c.5-1.23,1.2-2.71,1.76-3.9l-.05,0c-1.05.79-2.32,1.85-3.38,2.6l-3.85,2.75Z"/><path class="cls-4" d="M336.88,115.26l15.53-14.83,3.92,4.11-2.61,8.66a61.46,61.46,0,0,1-2.91,7.61l.07.07a78.53,78.53,0,0,1,6.19-6.48l4.54-4.33,3.08,3.22-15.53,14.83-3.52-3.68,2.82-9a81,81,0,0,1,2.91-7.94l-.09,0c-2,2-4.11,4.18-6.64,6.6L340,118.49Z"/><path class="cls-4" d="M371.25,121.66,354.39,135l-3-3.83,16.86-13.3Z"/><path class="cls-4" d="M365.94,150.72a13.78,13.78,0,0,1-3.81-4.09c-4.09-6.21-2.33-11.95,2.78-15.31,6.13-4,12.41-1.91,16,3.52a12.72,12.72,0,0,1,2.11,4.94l-3.77,1.3a10.37,10.37,0,0,0-1.58-3.85c-2.12-3.22-5.71-4.44-9.7-1.81-3.6,2.37-4.46,6-2.07,9.61a11.84,11.84,0,0,0,2.81,3Z"/><path class="cls-4" d="M371.17,151.21a12.37,12.37,0,0,0,1.27,5.41c1,2,2.37,2.61,3.62,2s1.41-1.86,1.05-4.58c-.52-3.74.18-6.71,3-8.14,3.27-1.66,7.16-.22,9.46,4.29a13.11,13.11,0,0,1,1.54,5.37l-4,.82a10.13,10.13,0,0,0-1.14-4.46c-.95-1.87-2.27-2.34-3.26-1.84-1.22.63-1.21,2-.88,4.93.48,4-.47,6.5-3.16,7.88-3.21,1.64-7.2.56-9.88-4.68a14.1,14.1,0,0,1-1.61-6Z"/><path class="cls-6" d="M272.36,106.24a129.33,129.33,0,0,1,41,22,132.22,132.22,0,0,1,17.07,16.23,138.19,138.19,0,0,1,14,19.09,134.12,134.12,0,0,1,16.86,44.32,128.29,128.29,0,0,1,2.28,23.8,134.06,134.06,0,0,1-1.95,23.9,137.12,137.12,0,0,1-6.08,23.27,129.76,129.76,0,0,1-10.22,21.82,139.61,139.61,0,0,1-31.06,36.74,136.63,136.63,0,0,1-42,23.75,132.89,132.89,0,0,1-23.5,5.95,142.8,142.8,0,0,1-24.17,1.71,135.88,135.88,0,0,1-88.52-34.48,138.69,138.69,0,0,1-29.81-37.77,136.49,136.49,0,0,1-9.44-22.17,139.18,139.18,0,0,1-5.31-23.46,137.13,137.13,0,0,1,2-47.68,132.17,132.17,0,0,1,70.66-90.13,129.72,129.72,0,0,1,21.75-8.34A137,137,0,0,0,165,114.69a132.73,132.73,0,0,0-48.12,47.92,129.3,129.3,0,0,0-15.69,42.18,132.26,132.26,0,0,0-.43,44.73,132.35,132.35,0,0,0,14.71,42,128,128,0,0,0,28.08,34.28,134.05,134.05,0,0,0,18,13A127.9,127.9,0,0,0,307.09,328.6a128.59,128.59,0,0,0,29.21-33.32,125,125,0,0,0,9.86-20,128.18,128.18,0,0,0,6.29-21.43,130.18,130.18,0,0,0-13.11-87.42,132.82,132.82,0,0,0-12.45-19,140.77,140.77,0,0,0-15.65-16.66,127.3,127.3,0,0,0-18.35-13.84A137.63,137.63,0,0,0,272.36,106.24Z"/><path class="cls-6" d="M269.33,114.7a120.38,120.38,0,0,1,38.28,20.39,123,123,0,0,1,15.94,15.11A127.54,127.54,0,0,1,336.63,168a125.2,125.2,0,0,1,15.8,41.34,118.36,118.36,0,0,1,2.15,22.23,123.85,123.85,0,0,1-1.78,22.32,129.16,129.16,0,0,1-5.65,21.74A121.21,121.21,0,0,1,337.62,296a130.7,130.7,0,0,1-29,34.37,128.24,128.24,0,0,1-128,20.8,126.5,126.5,0,0,1-38.46-23.51,129.18,129.18,0,0,1-27.87-35.26,126.86,126.86,0,0,1-8.85-20.71,129.75,129.75,0,0,1-5-21.9,128.28,128.28,0,0,1,1.83-44.52,123.19,123.19,0,0,1,65.89-84.1,120.34,120.34,0,0,1,20.28-7.75A128.56,128.56,0,0,0,169,122.77a123.84,123.84,0,0,0-44.59,44.78A120.11,120.11,0,0,0,110,206.82a125.34,125.34,0,0,0-1.91,20.81,123.15,123.15,0,0,0,1.63,20.76,119,119,0,0,0,39.92,70.72,124.32,124.32,0,0,0,16.7,12.07,118.9,118.9,0,0,0,58.77,16.63,118.47,118.47,0,0,0,76.38-26.21,119.72,119.72,0,0,0,27.13-31,116,116,0,0,0,9.16-18.57,119,119,0,0,0,5.87-19.9,121.2,121.2,0,0,0-12.09-81.29A123,123,0,0,0,320,153.16a130.89,130.89,0,0,0-14.53-15.54,119.44,119.44,0,0,0-17-12.94A128.77,128.77,0,0,0,269.33,114.7Z"/><path class="cls-6" d="M266.3,123.17l4.74,1.67,2.36.85,1.19.44,1.14.51,4.6,2.07c.77.35,1.54.68,2.3,1l2.22,1.2,4.43,2.44a24.84,24.84,0,0,1,2.15,1.33l2.12,1.39c1.41.94,2.86,1.82,4.23,2.81l4,3.1,2,1.55c.69.5,1.28,1.11,1.92,1.66l3.79,3.42c1.3,1.1,2.42,2.39,3.6,3.61l3.53,3.7,3.25,4,1.62,2,.81,1,.73,1,2.95,4.21c.48.7,1,1.39,1.45,2.11l1.32,2.21a118.34,118.34,0,0,1,14.75,38.35,22.11,22.11,0,0,1,.45,2.56l.37,2.56.71,5.15c.17,3.45.45,6.91.52,10.37a118.1,118.1,0,0,1-15.66,59.93,118.72,118.72,0,0,1-104.77,59.43c-1.76-.06-3.52-.05-5.27-.19l-5.26-.41-5.23-.67c-1.74-.24-3.46-.6-5.19-.9A120.73,120.73,0,0,1,184,342.84,118.52,118.52,0,0,1,114,269a117.95,117.95,0,0,1-3-61.71,116.91,116.91,0,0,1,15.91-37.9,113.54,113.54,0,0,1,45.23-40.16,111.39,111.39,0,0,1,18.8-7.16A119.09,119.09,0,0,0,173,130.85,114.91,114.91,0,0,0,132,172.48a111,111,0,0,0-13.21,36.37,113.62,113.62,0,0,0-.13,38.41,110.58,110.58,0,0,0,37.05,65.19,109.16,109.16,0,0,0,69.69,26.38,109.39,109.39,0,0,0,70.47-24.23,112,112,0,0,0,25-28.57,107.43,107.43,0,0,0,8.5-17.12,110.65,110.65,0,0,0,5.44-18.39A106.55,106.55,0,0,0,337,231.41c0-3.22-.11-6.44-.15-9.66l-.46-4.81-.23-2.41a19.43,19.43,0,0,0-.3-2.4,112.25,112.25,0,0,0-12.12-36.74l-1.12-2.18c-.4-.71-.84-1.39-1.26-2.09l-2.55-4.18-.64-1-.72-1-1.43-2-2.88-4L310,155.17c-1.07-1.24-2.07-2.55-3.26-3.69L303.26,148c-.59-.58-1.12-1.22-1.75-1.75l-1.84-1.65-3.69-3.3c-1.26-1.06-2.6-2-3.9-3l-2-1.51c-.66-.5-1.31-1-2-1.45l-4.16-2.73-2.08-1.38c-.71-.42-1.44-.81-2.16-1.22l-4.36-2.44-1.09-.61-1.13-.52-2.27-1Z"/><path class="cls-6" d="M263.28,131.63l4.36,1.53,2.19.77,1.09.4,1.05.47,4.25,1.89c.7.32,1.42.62,2.12,1l2,1.1,4.09,2.24c.7.36,1.34.8,2,1.22l2,1.28c1.3.86,2.63,1.67,3.9,2.58l3.73,2.84a89.8,89.8,0,0,1,7.14,6.1c1.2,1,2.23,2.19,3.33,3.32l3.26,3.41,3,3.64,1.5,1.82.75.92.68,1,2.73,3.87c.45.65.92,1.29,1.35,1.95l1.21,2a109.1,109.1,0,0,1,13.7,35.38,23.08,23.08,0,0,1,.41,2.35l.35,2.37.66,4.75c.17,3.19.43,6.38.5,9.58a107.14,107.14,0,0,1-1.47,19.16,111.21,111.21,0,0,1-4.79,18.69,104.9,104.9,0,0,1-8.12,17.55,109.69,109.69,0,0,1-96.77,55.08,107,107,0,0,1-19.38-2,112.74,112.74,0,0,1-18.73-5.34,109,109,0,0,1-69.08-86.95,108.21,108.21,0,0,1-.88-19.2l.28-4.79c.06-.8.06-1.6.17-2.39l.33-2.38.69-4.74.17-1.19.27-1.17.53-2.33a108.69,108.69,0,0,1,14.61-35,104.85,104.85,0,0,1,59-43.62c-22.88,9.13-42.26,25.77-54,46.68a104.23,104.23,0,0,0-11.95,68.7,100,100,0,0,0,4.58,17A102.41,102.41,0,0,0,139.46,279a100.79,100.79,0,0,0,150.75,28.57,102.85,102.85,0,0,0,23-26.19A101.38,101.38,0,0,0,326,248.85a102.94,102.94,0,0,0-10.06-69l-1-2c-.37-.66-.77-1.29-1.16-1.93l-2.33-3.84-.59-1-.65-.91-1.31-1.84-2.64-3.66-2.9-3.47a43.66,43.66,0,0,0-3-3.4c-2.13-2.13-4.11-4.45-6.43-6.39l-3.38-3.05c-1.16-1-2.39-1.87-3.59-2.81l-1.8-1.4a21.84,21.84,0,0,0-1.85-1.35l-3.81-2.52L277.57,139c-.65-.4-1.33-.76-2-1.14l-4-2.26-1-.56-1-.49-2.09-1Z"/><path class="cls-6" d="M260.25,140.09c2.65.95,5.37,1.76,8,2.87l3.88,1.71c.65.29,1.31.57,1.95.87l1.87,1,3.75,2c1.26.68,2.41,1.52,3.62,2.27s2.41,1.53,3.58,2.36l3.41,2.59a80.63,80.63,0,0,1,6.56,5.56c1.1.92,2.05,2,3.06,3l3,3.12,2.76,3.32L307,172.5l.69.84.62.88,2.51,3.54c.41.59.84,1.18,1.24,1.78l1.12,1.86a100.08,100.08,0,0,1,12.63,32.4c.18.71.28,1.44.39,2.16l.32,2.18.62,4.35c.17,2.92.41,5.85.49,8.79a96,96,0,0,1-1.3,17.58,98.27,98.27,0,0,1-11.82,33.28,100.89,100.89,0,0,1-154.23,25.63,100.13,100.13,0,0,1-33.14-61.3,97,97,0,0,1-.83-17.61l.27-4.4.15-2.19.31-2.18a76.5,76.5,0,0,1,1.52-8.66A99.55,99.55,0,0,1,142,179.33a95.62,95.62,0,0,1,54-39.9c-20.84,8.52-38.44,23.81-49,42.95a93.76,93.76,0,0,0-10.69,30.55,95.63,95.63,0,0,0,.18,32.07,88.22,88.22,0,0,0,4.2,15.43,91.83,91.83,0,0,0,143.89,40.16,93.8,93.8,0,0,0,20.88-23.81,91.62,91.62,0,0,0,11.65-29.61,93.74,93.74,0,0,0-9-62.86l-.92-1.83c-.33-.59-.7-1.17-1.05-1.76L304,177.21l-.53-.88-.6-.84-1.19-1.67-2.39-3.36-2.63-3.17c-.89-1-1.72-2.15-2.71-3.11-1.94-2-3.73-4.08-5.85-5.86l-3.07-2.8c-1.05-.9-2.17-1.71-3.26-2.58s-2.16-1.76-3.32-2.52L275,148.1l-1.73-1.17c-.6-.36-1.21-.7-1.81-1.05l-3.65-2.08-.91-.52-1-.45-1.9-.91Z"/><path class="cls-6" d="M257.23,148.55c2.4.85,4.87,1.58,7.23,2.57l3.53,1.54c.58.26,1.18.5,1.76.78l1.71.9,3.41,1.83c1.14.61,2.18,1.37,3.29,2.05s2.19,1.37,3.25,2.12l3.11,2.34a73.18,73.18,0,0,1,6,5c1,.83,1.87,1.81,2.79,2.74l2.72,2.82,2.52,3,1.26,1.52.63.75.57.8,2.28,3.21c.38.54.77,1.07,1.14,1.62l1,1.69A90.88,90.88,0,0,1,317,215.29a16.46,16.46,0,0,1,.36,2l.3,2,.57,4c.17,2.66.39,5.32.47,8a87.71,87.71,0,0,1-1.14,16,91.36,91.36,0,0,1-31.36,55.16,92.24,92.24,0,0,1-92.05,15.53,91.75,91.75,0,0,1-58-72.51,90.07,90.07,0,0,1,13.38-61.09,86.52,86.52,0,0,1,49.05-36.19c-18.8,7.92-34.61,21.86-44,39.22a85.54,85.54,0,0,0-9.11,56.55,83.49,83.49,0,0,0,28.37,48.64A82.76,82.76,0,0,0,279,293.59a84.91,84.91,0,0,0,18.81-21.43,83,83,0,0,0,10.53-26.66,84.9,84.9,0,0,0-8-56.73l-.82-1.65c-.3-.54-.63-1.06-.94-1.6l-1.9-3.18-.48-.8-.53-.75-1.07-1.52-2.15-3-2.36-2.88c-.8-.95-1.55-1.95-2.44-2.82-1.75-1.77-3.36-3.7-5.26-5.33l-2.77-2.54c-.95-.82-1.95-1.56-2.93-2.35s-1.95-1.61-3-2.3l-3.13-2.11L269,154.82c-.53-.33-1.09-.63-1.63-.95L264.06,152l-.83-.48-.85-.41-1.72-.83Z"/><path class="cls-6" d="M254.2,157c2.16.75,4.38,1.39,6.5,2.27l3.17,1.36c.53.23,1.07.45,1.59.69l1.54.8,3.06,1.63c1,.54,2,1.22,3,1.83s2,1.22,2.94,1.89l2.8,2.08a65.73,65.73,0,0,1,5.38,4.5,34.16,34.16,0,0,1,2.51,2.45l2.46,2.53c.77.89,1.52,1.8,2.28,2.7l1.13,1.35a14.6,14.6,0,0,1,1.09,1.4l2.07,2.88,1,1.45.93,1.51a80.43,80.43,0,0,1,10.5,26.45c.3,1.16.4,2.36.6,3.54l.53,3.57c.16,2.39.36,4.79.44,7.2a78.52,78.52,0,0,1-1,14.43,82.27,82.27,0,0,1-28.15,49.81,82.93,82.93,0,0,1-108.14-.83A82.15,82.15,0,0,1,145,244.26a81.07,81.07,0,0,1,1-28.73A80.2,80.2,0,0,1,157,189.24,77.26,77.26,0,0,1,201,156.76l-3.1,1.48-1.54.72a14.52,14.52,0,0,0-1.52.78l-3,1.68-1.48.83-1.41.95-2.82,1.86c-1,.59-1.81,1.35-2.71,2l-2.66,2.06-2.49,2.26a75.81,75.81,0,0,0-16.3,20.85A77.17,77.17,0,0,0,153.83,217l-.27,1.61-.14,1.62-.29,3.23a26.92,26.92,0,0,0-.12,3.24l0,3.23a78.42,78.42,0,0,0,1.36,12.82,74.39,74.39,0,0,0,25.48,43.13,73.75,73.75,0,0,0,93.51.75,75.63,75.63,0,0,0,16.73-19,74,74,0,0,0,9.41-23.71,75.44,75.44,0,0,0,.93-25.75,77.63,77.63,0,0,0-7.85-24.85l-.73-1.48-.83-1.42-1.68-2.86a13.72,13.72,0,0,0-.9-1.39l-.94-1.36L285.55,182l-2.09-2.58c-.71-.85-1.38-1.75-2.17-2.54-1.55-1.58-3-3.32-4.67-4.78l-2.46-2.3c-.85-.73-1.75-1.41-2.62-2.12s-1.73-1.44-2.66-2.07l-2.8-1.91-1.39-1c-.48-.3-1-.58-1.46-.87l-2.93-1.73c-1-.62-2-1-3-1.57Z"/><path class="cls-6" d="M251.18,165.48a68.38,68.38,0,0,1,38.66,29.31,71.41,71.41,0,0,1,9.43,23.47c.28,1,.36,2.1.55,3.16l.48,3.17c.16,2.13.33,4.26.42,6.4a71,71,0,0,1-.83,12.85A73.32,73.32,0,0,1,275,288.32,73.83,73.83,0,0,1,226.63,306a76.16,76.16,0,0,1-25.73-4.71,74.9,74.9,0,0,1-22.42-13.37,73.91,73.91,0,0,1-21.55-32.11,72.15,72.15,0,0,1,7.56-61.56,68.09,68.09,0,0,1,39.07-28.77l-2.72,1.35c-.89.46-1.83.82-2.68,1.36l-2.6,1.52-1.3.76-1.23.85L190.56,173c-.84.53-1.58,1.22-2.37,1.81l-2.32,1.86-2.17,2a73.77,73.77,0,0,0-7.91,8.69c-.61.76-1.13,1.59-1.7,2.38s-1.14,1.58-1.64,2.41L171,194.63a27.33,27.33,0,0,0-1.39,2.55,67.18,67.18,0,0,0-6.33,44.38,65.45,65.45,0,0,0,22.59,37.62,64.85,64.85,0,0,0,62.57,11.15,65.29,65.29,0,0,0,42.22-48.17,66.37,66.37,0,0,0,.9-22.59,68.46,68.46,0,0,0-6.78-21.87l-.63-1.31-.73-1.26-1.46-2.52c-.46-.86-1.07-1.62-1.6-2.44l-1.67-2.41-1.83-2.29c-.62-.76-1.2-1.55-1.89-2.25-1.36-1.4-2.61-2.95-4.09-4.25l-2.15-2c-.74-.66-1.53-1.26-2.29-1.89s-1.52-1.29-2.34-1.85l-2.45-1.71-1.22-.87c-.42-.27-.85-.52-1.28-.78l-2.58-1.55c-.84-.56-1.78-.94-2.66-1.41Z"/><path class="cls-6" d="M248.15,173.94c1.67.54,3.39,1,5,1.65l2.46,1,1.24.52,1.19.6,2.39,1.23c.8.4,1.53.91,2.3,1.37s1.54.93,2.29,1.43l2.18,1.58a51.24,51.24,0,0,1,4.22,3.42,27,27,0,0,1,2,1.88l1.94,1.93c1.19,1.37,2.41,2.74,3.53,4.19l1.62,2.22.81,1.11.73,1.17a62.45,62.45,0,0,1,8.37,20.5c.39,1.83.63,3.68.92,5.54s.31,3.73.4,5.61a61.61,61.61,0,0,1-.68,11.26,64.22,64.22,0,0,1-21.73,39.14,66,66,0,0,1-19.76,11.64,64.94,64.94,0,0,1-65-11.7,64.23,64.23,0,0,1-21.68-39.18A62.19,62.19,0,0,1,172,199.17l.74-1.17.81-1.11,1.64-2.22c.52-.75,1.17-1.4,1.75-2.11s1.19-1.39,1.8-2.06l1.95-1.92a25,25,0,0,1,2-1.86,47.2,47.2,0,0,1,4.23-3.39l2.2-1.57c.76-.5,1.54-.95,2.3-1.42s1.51-1,2.32-1.35l2.39-1.21,1.2-.59,1.24-.5,2.47-1c1.66-.63,3.38-1.08,5.05-1.6-12.69,6.07-23.06,16-29,28A59,59,0,0,0,171.34,221a57.31,57.31,0,0,0,.82,19.43,56.41,56.41,0,0,0,36.19,41.37,55.72,55.72,0,0,0,53.7-9.19,56.65,56.65,0,0,0,19.76-32.09,57.37,57.37,0,0,0,.86-19.44,59.27,59.27,0,0,0-5.72-18.9C271.09,190.11,260.78,180.14,248.15,173.94Z"/><path class="cls-6" d="M245.13,182.4c1.42.44,2.89.82,4.29,1.35l2.11.84,1.06.42,1,.5,2,1c.69.34,1.32.77,2,1.16s1.32.78,2,1.2l1.88,1.33a52.49,52.49,0,0,1,7,6.1c1,1.16,2.08,2.33,3,3.56l1.4,1.89.71.95.63,1a53.24,53.24,0,0,1,7.95,36.76,55.44,55.44,0,0,1-18.49,33.8,56.91,56.91,0,0,1-17,10.09A57.6,57.6,0,0,1,227.24,288a58.57,58.57,0,0,1-19.52-3.44,57.29,57.29,0,0,1-17.1-9.92A55.92,55.92,0,0,1,171.82,241c-.19-1.62-.4-3.23-.55-4.84l-.05-4.85c0-1.61.21-3.22.32-4.82s.49-3.18.77-4.76a53.28,53.28,0,0,1,7.2-17.57,55.53,55.53,0,0,1,5.76-7.42c1.12-1.09,2.19-2.22,3.36-3.24a45.37,45.37,0,0,1,3.62-2.89l1.89-1.33c.63-.44,1.3-.81,2-1.21s1.3-.81,2-1.15l2-1c1.35-.71,2.81-1.18,4.19-1.75s2.88-.91,4.3-1.34A52.72,52.72,0,0,0,184.66,207,49.94,49.94,0,0,0,180.1,223c-.1,1.38-.19,2.74-.26,4.11s0,2.74.09,4.1l.39,4.06.78,4a48.17,48.17,0,0,0,16.77,26.62,47,47,0,0,0,75.08-27,49.06,49.06,0,0,0-3.79-32.21A53.5,53.5,0,0,0,245.13,182.4Z"/><path class="cls-6" d="M242.1,190.86a39.67,39.67,0,0,1,13.62,6.24,43.94,43.94,0,0,1,5.86,5c.88.95,1.75,1.92,2.57,2.93l1.19,1.55.59.79.54.82a44.36,44.36,0,0,1,6.92,30.62,46.3,46.3,0,0,1-15.28,28.45,48,48,0,0,1-14.2,8.58A47.21,47.21,0,0,1,227.56,279a49.35,49.35,0,0,1-16.42-2.75A46.4,46.4,0,0,1,196.73,268a46.89,46.89,0,0,1-16-28.09c-.16-1.35-.32-2.7-.45-4.05s0-2.71-.06-4A43,43,0,0,1,187,209.12a40.64,40.64,0,0,1,24.1-17.69,43.86,43.86,0,0,0-18.91,20.5,39.63,39.63,0,0,0-3.32,13A42.22,42.22,0,0,0,190,238a39.94,39.94,0,0,0,5.25,11.76,39.25,39.25,0,0,0,8.65,9.34A36.1,36.1,0,0,0,215,265a38.08,38.08,0,0,0,12.4,2,36.3,36.3,0,0,0,12.34-2.24,38.22,38.22,0,0,0,24.37-27.59,40.08,40.08,0,0,0-2.76-26.08A44.49,44.49,0,0,0,242.1,190.86Z"/><path class="cls-6" d="M239.08,199.33a32.07,32.07,0,0,1,19.6,13.32,35.38,35.38,0,0,1,5.89,24.47,37.17,37.17,0,0,1-12.06,23.09,38.82,38.82,0,0,1-11.41,7.09A37.42,37.42,0,0,1,227.89,270a39.9,39.9,0,0,1-13.31-2.05,37.64,37.64,0,0,1-24.86-29.08,29.7,29.7,0,0,1-.39-3.25,23.72,23.72,0,0,1-.09-3.26l0-1.62c0-.54.09-1.08.14-1.62s.09-1.07.18-1.6l.29-1.59a33.5,33.5,0,0,1,4.66-11.79,31.63,31.63,0,0,1,19.11-14,37.56,37.56,0,0,0-8.45,7.46,32.75,32.75,0,0,0-5.41,9.25,31.2,31.2,0,0,0-.85,20,29.77,29.77,0,0,0,10.95,15.6,27.16,27.16,0,0,0,8.43,4.27,28.77,28.77,0,0,0,9.31,1.31,26.48,26.48,0,0,0,9.24-1.74,29.31,29.31,0,0,0,18.44-20.74,31,31,0,0,0-1.73-20A35.44,35.44,0,0,0,239.08,199.33Z"/><path class="cls-6" d="M236.05,207.79a23.06,23.06,0,0,1,14.84,9.33,26.4,26.4,0,0,1,4.86,18.31,28,28,0,0,1-8.83,17.73,29.59,29.59,0,0,1-8.59,5.59A28.35,28.35,0,0,1,228.27,261,28.66,28.66,0,0,1,209,254.78a28.86,28.86,0,0,1-6.75-7.58,28.1,28.1,0,0,1-3.56-9.35,15.55,15.55,0,0,1-.35-2.45c0-.83-.16-1.64-.12-2.47l.08-2.44c.1-.81.17-1.62.33-2.41a26.24,26.24,0,0,1,3.37-8.91,24.75,24.75,0,0,1,6.2-6.75,21.62,21.62,0,0,1,7.93-3.65,29.09,29.09,0,0,0-5.54,6,25,25,0,0,0-3.23,6.88,23,23,0,0,0-.87,7.12,22.19,22.19,0,0,0,1.34,6.74,21.84,21.84,0,0,0,3.19,5.78,21.37,21.37,0,0,0,4.76,4.36,19.78,19.78,0,0,0,5.73,2.66,20.13,20.13,0,0,0,6.23.7,19.71,19.71,0,0,0,11.64-4.35,20,20,0,0,0,4.36-4.75,22,22,0,0,0,2.71-6,22.21,22.21,0,0,0-.7-13.86A26.39,26.39,0,0,0,236.05,207.79Z"/><path class="cls-6" d="M233,216.25a14.21,14.21,0,0,1,10.1,5.35,17.51,17.51,0,0,1,3.81,12.13,19.1,19.1,0,0,1-5.55,12.35,20.11,20.11,0,0,1-26.06,2.17,19.44,19.44,0,0,1-4.81-5,21.15,21.15,0,0,1-1.66-3l-.59-1.6c-.17-.54-.31-1.1-.45-1.64a18.63,18.63,0,0,1-.28-6.6,17,17,0,0,1,2.06-6,14.11,14.11,0,0,1,9.09-6.92c-4.44,5.89-4.33,12.32-1.92,16.54a12.13,12.13,0,0,0,4.83,4.76,11.36,11.36,0,0,0,6.18,1.28,11.1,11.1,0,0,0,5.89-2.27,13.3,13.3,0,0,0,2.36-2.38,12.94,12.94,0,0,0,1.63-3.11,13.33,13.33,0,0,0,.34-7.81A17.28,17.28,0,0,0,233,216.25Z"/><path class="cls-7" d="M280.63,200.05a1.58,1.58,0,0,0,.1,1.83,94.82,94.82,0,0,0,19.2,17.88,93.56,93.56,0,0,0,12.81,7.54q3.15,1.53,6.45,2.84a92.88,92.88,0,0,0,10.58,3.48A95.15,95.15,0,0,0,372.88,235h0c28.59-5.78,43.14-32.52,56.07-58.6a1.57,1.57,0,0,0-2.43-1.88c-18.7,16.44-33.87,33.38-60.4,31.15-1.21-.1-2.43-.22-3.65-.37A95.82,95.82,0,0,1,343.8,201a94.27,94.27,0,0,1-16.32-7.27,91.15,91.15,0,0,1-8.24-5.24,93.53,93.53,0,0,1-10.64-8.79c-1.74-1.68-3.42-3.41-5-5.21a1.57,1.57,0,0,0-2.26-.07A151.4,151.4,0,0,0,280.63,200.05Z"/><path class="cls-8" d="M223.75,300.69c-11.33.63-21.42,7.62-28.3,18.33,2.67,8.08,8.75,13.71,15.82,13.71,5.81,0,10.95-3.28,14.08-6v-23C224.81,300.64,224.28,300.66,223.75,300.69Z"/><path class="cls-9" d="M266.33,201.6s-4.12,12.35-3.7,17c1.69,18.5,9,24.32,11.95,35.88,6.36,24.5-13.1,49.4-13.66,78,0,1.95,0,6.48,2.88,10.24,4.28,5.52,13.48,7.6,20.43,4.7,8-3.34,10.54-12.25,11.71-16.37,3.61-12.75-.84-21.2-4.06-36.49-5.41-25.64,3.61-31.78-1.56-53C282.61,201.14,266.33,201.6,266.33,201.6Z"/><path class="cls-10" d="M271.74,190.27Q268.85,196.14,266,202s28.88,10.56,24.45,68c-1.33,17.23.31,17.5.31,17.5s22.11-25.08,14.56-36.21S287.86,198.65,271.74,190.27Z"/><path class="cls-11" d="M226.76,300.69c11.34.63,21.43,7.62,28.31,18.33-2.68,8.08-8.75,13.71-15.82,13.71-5.81,0-10.95-3.28-14.08-6v-23C225.7,300.64,226.23,300.66,226.76,300.69Z"/><path class="cls-9" d="M184.11,201.6s4.13,12.35,3.71,17c-1.69,18.5-9,24.32-12,35.88-6.35,24.5,13.1,49.4,13.66,78,0,1.95,0,6.48-2.87,10.24-4.29,5.52-13.48,7.6-20.44,4.7-8-3.34-10.53-12.25-11.7-16.37-3.61-12.75.83-21.2,4.06-36.49,5.41-25.64-3.61-31.78,1.56-53C167.83,201.14,184.11,201.6,184.11,201.6Z"/><path class="cls-12" d="M226.68,120c11.09,0,26.86-1.28,37.27,1q3.94,1.68,7.68,3.71c25.21,13.64,29.05,42.72,53.31,67.69-4.07-2.19-17.86-4.68-21.54-7.43q-3.56-2.66-6.84-5.64a151.15,151.15,0,0,0-18.93,30.23c-9.3,19.66-10.12,41-14.49,64.83a2.46,2.46,0,0,0,0,.47l0,0a43.13,43.13,0,0,1-4,48.14c-10.49-3.78-21.81-3.56-33.61-3.56h-.48V120Z"/><path class="cls-7" d="M173.34,200.05a1.58,1.58,0,0,1-.1,1.83A94.82,94.82,0,0,1,154,219.76a93.56,93.56,0,0,1-12.81,7.54q-3.15,1.53-6.45,2.84a92.88,92.88,0,0,1-10.58,3.48A95.15,95.15,0,0,1,81.09,235h0C52.5,229.17,38,202.43,25,176.35a1.56,1.56,0,0,1,2.43-1.88c18.69,16.44,33.87,33.38,60.4,31.15,1.21-.1,2.43-.22,3.65-.37A95.82,95.82,0,0,0,110.17,201a94.27,94.27,0,0,0,16.32-7.27,91.15,91.15,0,0,0,8.24-5.24,93.53,93.53,0,0,0,10.64-8.79c1.74-1.68,3.42-3.41,5-5.21a1.57,1.57,0,0,1,2.26-.07A151.4,151.4,0,0,1,173.34,200.05Z"/><path class="cls-10" d="M178.7,190.27,184.49,202S155.6,212.56,160,270c1.33,17.23-.31,17.5-.31,17.5s-22.11-25.08-14.56-36.21S162.59,198.65,178.7,190.27Z"/><path class="cls-13" d="M172.46,201a1.58,1.58,0,0,1-.1,1.83,94.87,94.87,0,0,1-19.2,17.89,92.9,92.9,0,0,1-12.81,7.53q-3.15,1.54-6.45,2.85a95.19,95.19,0,0,1-53.69,4.81h0c-28.58-5.78-43.14-32.52-56.07-58.6-.76-1.54,1.4-3.24,2.43-1.88C51.19,208,84.9,249.2,165.23,190.73,170,197.83,170.19,197.48,172.46,201Z"/><path class="cls-10" d="M223.61,120c-11,0-26.74-1.3-37.11.94a1.32,1.32,0,0,0-.3.1q-3.87,1.66-7.54,3.65c-24.26,13.13-24.51,38.26-47.75,64.42-.88,1,6.1,2.32,7.25,1.64a94.38,94.38,0,0,0,8.73-5.8c1.94-1.45,3.82-3,5.65-4.57a1.51,1.51,0,0,1,2.2.19,150.93,150.93,0,0,1,17.92,29c9.3,19.66,10.7,41,14.5,64.83a2.48,2.48,0,0,1,0,.47l0,0a43.13,43.13,0,0,0,3.25,47.24,1.57,1.57,0,0,0,1.78.51c10.19-3.52,21.14-3.17,32.53-3.17h.48V120Z"/><path class="cls-14" d="M224.13,276c-1.43-1.35-6.77-6.46-12.5-5.54-1.85.3-2.63,1-4.66,1.69-2.91.93-7.36,1.36-13.93-1.15,0,0-2.37,17.35,4,23.55,7.36,7.22,7.69,21.4,7.69,21.4,7.47-3.85,19.53-1.85,19.53-1.85.38-.92.73-1.84,1.07-2.75l.33-33.66A12.62,12.62,0,0,0,224.13,276Z"/><path class="cls-15" d="M200.41,277.76s3.59,6.74,9,8.81c4.72,1.83,8,10.64-.59,7.9s-8.63-10.25-8.63-12.76C200.14,276.55,200.41,277.76,200.41,277.76Z"/><path class="cls-14" d="M227.13,276.08c1.46-1.28,6.92-6.15,12.62-5,1.84.38,2.61,1.15,4.62,1.89,2.89,1.06,7.32,1.69,13.95-.52,0,0,1.95,17.45-4.51,23.36-7.54,6.89-8.2,21.05-8.2,21.05-7.38-4.19-19.49-2.73-19.49-2.73q-.52-1.41-1-2.79l.48-33.66A12.34,12.34,0,0,1,227.13,276.08Z"/><path class="cls-16" d="M281.51,201a1.56,1.56,0,0,0,.1,1.83,94.87,94.87,0,0,0,19.2,17.89,92.9,92.9,0,0,0,12.81,7.53q3.15,1.54,6.45,2.85a95.19,95.19,0,0,0,53.69,4.81h0c28.58-5.78,43.14-32.52,56.07-58.6.76-1.54-1.35-3.2-2.43-1.88-28.71,35-58.33,73.76-138.66,15.29C283.92,197.83,283.78,197.48,281.51,201Z"/><path class="cls-15" d="M250.9,278.54s-3.82,6.61-9.24,8.51c-4.77,1.67-8.3,10.37.33,7.91s9-10,9-12.47C251.2,277.34,250.9,278.54,250.9,278.54Z"/><path class="cls-17" d="M163.92,193.09a1.23,1.23,0,0,1-.17,1.29c-3.81,4.46-28.9-2.58-25.55-4.29a53.26,53.26,0,0,0,5.41-3.15,58.44,58.44,0,0,0,7.1-5.51q1.75-1.6,3.41-3.36a.9.9,0,0,1,1.41.11C159.9,184.24,160.75,186,163.92,193.09Z"/><path class="cls-12" d="M287.47,191.05a1.27,1.27,0,0,0,.16,1.29c3.64,4.4,27.69-2.58,24.48-4.27a40.84,40.84,0,0,1-5.18-3.11,56.66,56.66,0,0,1-6.8-5.46c-1.12-1.05-2.21-2.16-3.27-3.31a.83.83,0,0,0-1.34.11C291.33,182.3,290.51,184.06,287.47,191.05Z"/><path class="cls-18" d="M165.75,182a19.94,19.94,0,0,1,14.4,6.18,13.74,13.74,0,0,1,2.42,3.68c.13.34.3.76.39,1l.25.81c.18.55.34,1.09.53,1.62a26.55,26.55,0,0,0,1.23,3.14,7.19,7.19,0,0,0,2.13,2.83,3.56,3.56,0,0,1-2.14-.05,7.56,7.56,0,0,1-2-.95,11.92,11.92,0,0,1-3-3,17.51,17.51,0,0,1-1.08-1.75l-.8-1.59a15.72,15.72,0,0,0-1.73-2.49,40.7,40.7,0,0,0-4.9-4.67C169.69,185.26,167.75,183.75,165.75,182Z"/><path class="cls-18" d="M167.76,183s10.4,4.95,13.37,14.36C181.13,197.35,165.78,203.29,167.76,183Z"/><ellipse class="cls-19" cx="170.49" cy="187.69" rx="2.04" ry="1.22" transform="translate(-52.95 307.57) rotate(-75.96)"/><path class="cls-18" d="M285.12,182c-2,1.74-3.95,3.25-5.78,4.79a40.58,40.58,0,0,0-4.89,4.67,15.8,15.8,0,0,0-1.74,2.49l-.8,1.59a15.75,15.75,0,0,1-1.07,1.75,11.92,11.92,0,0,1-3,3,7.62,7.62,0,0,1-2,.95,3.56,3.56,0,0,1-2.14.05,7.13,7.13,0,0,0,2.14-2.83,28.34,28.34,0,0,0,1.22-3.14c.19-.53.36-1.07.53-1.62l.26-.81c.09-.27.26-.69.39-1a13.74,13.74,0,0,1,2.42-3.68,19.94,19.94,0,0,1,14.4-6.18Z"/><path class="cls-18" d="M283.1,183s-10.39,4.95-13.36,14.36C269.74,197.35,285.08,203.29,283.1,183Z"/><ellipse class="cls-19" cx="280.38" cy="187.69" rx="1.22" ry="2.04" transform="translate(-37.15 73.61) rotate(-14.04)"/><circle class="cls-4" cx="389.35" cy="181.67" r="8.18"/><circle class="cls-4" cx="63.94" cy="182.47" r="8.18"/></svg>